<?xml version="1.0" encoding="utf-8"?>
<!-- Generator: Adobe Illustrator 27.5.0, SVG Export Plug-In . SVG Version: 6.00 Build 0)  -->
<svg version="1.1" id="Capa_1" xmlns="http://www.w3.org/2000/svg" xmlns:xlink="http://www.w3.org/1999/xlink" x="0px" y="0px"
	 viewBox="0 0 2122 2122" style="enable-background:new 0 0 2122 2122;" xml:space="preserve">
<g>
	<circle style="fill:#E6302E;" cx="1060.657" cy="1060.66" r="853.118"/>
	<g>
		<path style="fill:#CD0926;" d="M1480.973,1499.461c-42.34,26.746-98.984,21.75-135.883-15.152l-13.398-13.398
			c-15.23-5.254-29.574-13.832-41.734-25.988l-182.039-182.043l-221.426,221.426c-42.797,42.793-112.164,42.793-154.961,0
			c-3.899-3.898-7.32-8.09-10.516-12.391c-16.309-5.117-31.676-14.066-44.609-26.996c-42.793-42.793-42.793-112.164-0.008-154.957
			l229.297-229.297L676.398,831.363c-42.785-42.793-42.785-112.168,0-154.961c42.785-42.793,112.164-42.793,154.961,0l13.398,13.398
			c15.231,5.246,29.574,13.828,41.723,25.988l71.699,71.695c-70.293-176.043-116.055-362.977-115.078-551.906
			c-365.777,96.188-635.563,429.109-635.563,825.082c0,471.164,381.953,853.117,853.117,853.117
			c249.305,0,473.605-106.953,629.59-277.457c-66.281-37.207-130.418-78.16-191.668-123.621
			C1492.684,1508.324,1486.816,1503.902,1480.973,1499.461z"/>
		<path style="fill:#EB5B50;" d="M1444.918,676.402c3.898,3.902,7.316,8.082,10.512,12.387c16.313,5.113,31.691,14.07,44.621,27
			c42.785,42.789,42.785,112.164,0,154.957l-21.145,21.152c25.254,7.047,51.496,11.109,78.645,11.563
			c137.906,2.305,190.137-113.785,140.578-233.766c-54.441-131.84-162.355-246.883-294.566-302.258
			c-82.414-34.52-256.688-88.684-299.105,33.441c-33.703,97.016,54.344,209.492,107.41,282.48
			c9.832,13.516,20.211,26.918,31.094,40.055l47.004-47.012C1332.754,633.609,1402.133,633.609,1444.918,676.402z"/>
		<path style="fill:#6A0B08;" d="M831.359,1444.918c-29.855,29.867-72.652,38.82-110.344,26.996
			c3.195,4.301,6.617,8.492,10.516,12.391c42.797,42.793,112.164,42.793,154.961,0l221.426-221.426l-47.262-47.262L831.359,1444.918
			z"/>
		<path style="fill:#6A0B08;" d="M844.758,689.801l215.898,215.906l7.875-7.875L958.18,787.484l-71.699-71.695
			C874.332,703.629,859.988,695.047,844.758,689.801z"/>
		<path style="fill:#6A0B08;" d="M1500.051,715.789c-12.93-12.93-28.309-21.887-44.621-27
			c31.805,42.891,28.387,103.68-10.512,142.574l-229.301,229.301l229.301,229.301c42.797,42.789,42.797,112.16,0,154.953
			c-30.637,30.637-74.855,39.215-113.227,25.992l13.398,13.398c36.898,36.902,93.543,41.898,135.883,15.152
			c6.75-4.27,13.184-9.266,19.066-15.156c42.797-42.789,42.797-112.164,0.012-154.957l-229.301-229.301l208.156-208.148
			l21.145-21.152C1542.836,827.953,1542.836,758.578,1500.051,715.789z"/>
		<path style="fill:#FFFFFF;" d="M1444.918,1289.965l-229.301-229.301l229.301-229.301c38.898-38.895,42.316-99.684,10.512-142.574
			c-3.195-4.305-6.613-8.484-10.512-12.387c-42.785-42.793-112.164-42.793-154.953,0l-47.004,47.012l-174.43,174.418l-7.875,7.875
			L844.758,689.801l-13.398-13.398c-42.797-42.793-112.176-42.793-154.961,0c-42.785,42.793-42.785,112.168,0,154.961
			l229.297,229.301l-229.297,229.297c-42.785,42.793-42.785,112.164,0.008,154.957c12.933,12.93,28.301,21.879,44.609,26.996
			c37.691,11.824,80.488,2.871,110.344-26.996l229.297-229.301l47.262,47.262l182.039,182.043
			c12.16,12.156,26.504,20.734,41.734,25.988c38.371,13.223,82.59,4.645,113.227-25.992
			C1487.715,1402.125,1487.715,1332.754,1444.918,1289.965z"/>
	</g>
</g>
</svg>
